# xmcd
# 
# Track frame offsets:
#     150
#     19670
#     43194
#     62601
# 
# Disc length: 1146
# 
# Revision: 8
# Processed by: cddbd v1.5.2PL0 Copyright (c) Steve Scherf et al.
# Submitted via: BonkEnc v1.0.8
# 
DISCID=2c047804
DTITLE=Snow* - 願い星
DYEAR=2002
DGENRE=Anime
TTITLE0=願い星
TTITLE1=青い傘
TTITLE2=願い星（カラオケ）
TTITLE3=青い傘’カラオケ）
EXTD=
EXTT0=
EXTT1=
EXTT2=
EXTT3=
PLAYORDER=
